<mxfile modified="2025-03-16T08:31:07.989Z" host="Electron" agent="Mozilla/5.0 (Windows NT 10.0; Win64; x64) AppleWebKit/537.36 (KHTML, like Gecko) draw.io/23.0.2 Chrome/120.0.6099.109 Electron/28.1.0 Safari/537.36" etag="TT9n1VCZUiA5TddE02DC" version="23.0.2" type="device">
  <diagram id="Ht1M8jgEwFfnCIfOTk4-" name="Page-1">
    <mxGraphModel dx="1300" dy="1970" grid="0" gridSize="10" guides="1" tooltips="1" connect="1" arrows="1" fold="1" page="0" pageScale="1" pageWidth="1169" pageHeight="827" math="0" shadow="0">
      <root>
        <mxCell id="0" />
        <mxCell id="1" parent="0" />
        <object label="AWS Cloud" id="UEzPUAAOIrF-is8g5C7q-175">
          <mxCell style="points=[[0,0],[0.25,0],[0.5,0],[0.75,0],[1,0],[1,0.25],[1,0.5],[1,0.75],[1,1],[0.75,1],[0.5,1],[0.25,1],[0,1],[0,0.75],[0,0.5],[0,0.25]];outlineConnect=0;gradientColor=none;fontSize=12;fontStyle=0;shape=mxgraph.aws4.group;grIcon=mxgraph.aws4.group_aws_cloud_alt;strokeColor=#232F3E;fillColor=none;verticalAlign=top;align=left;spacingLeft=30;fontColor=default;dashed=0;labelBackgroundColor=default;container=1;pointerEvents=0;collapsible=0;recursiveResize=0;labelBorderColor=none;html=1;whiteSpace=wrap;" parent="1" vertex="1">
            <mxGeometry x="40" y="-930" width="960" height="827" as="geometry" />
          </mxCell>
        </object>
        <mxCell id="7ESEeqmzhxx4Lz22iERS-2" value="" style="points=[[0.35,0,0],[0.98,0.51,0],[1,0.71,0],[0.67,1,0],[0,0.795,0],[0,0.65,0]];verticalLabelPosition=bottom;sketch=0;html=1;verticalAlign=top;aspect=fixed;align=center;pointerEvents=1;shape=mxgraph.cisco19.user;fillColor=#005073;strokeColor=none;" vertex="1" parent="UEzPUAAOIrF-is8g5C7q-175">
          <mxGeometry x="392.25" y="19.5" width="70.5" height="70.5" as="geometry" />
        </mxCell>
        <mxCell id="7ESEeqmzhxx4Lz22iERS-3" value="" style="sketch=0;pointerEvents=1;shadow=0;dashed=0;html=1;strokeColor=none;fillColor=#505050;labelPosition=center;verticalLabelPosition=bottom;verticalAlign=top;outlineConnect=0;align=center;shape=mxgraph.office.users.csv_file;" vertex="1" parent="UEzPUAAOIrF-is8g5C7q-175">
          <mxGeometry x="285" y="105" width="62" height="42" as="geometry" />
        </mxCell>
        <mxCell id="7ESEeqmzhxx4Lz22iERS-4" value="" style="sketch=0;points=[[0,0,0],[0.25,0,0],[0.5,0,0],[0.75,0,0],[1,0,0],[0,1,0],[0.25,1,0],[0.5,1,0],[0.75,1,0],[1,1,0],[0,0.25,0],[0,0.5,0],[0,0.75,0],[1,0.25,0],[1,0.5,0],[1,0.75,0]];outlineConnect=0;fontColor=#232F3E;fillColor=#8C4FFF;strokeColor=#ffffff;dashed=0;verticalLabelPosition=bottom;verticalAlign=top;align=center;html=1;fontSize=12;fontStyle=0;aspect=fixed;shape=mxgraph.aws4.resourceIcon;resIcon=mxgraph.aws4.api_gateway;" vertex="1" parent="UEzPUAAOIrF-is8g5C7q-175">
          <mxGeometry x="392.25" y="180" width="90" height="90" as="geometry" />
        </mxCell>
        <mxCell id="7ESEeqmzhxx4Lz22iERS-5" value="&lt;br&gt;&lt;br&gt;POST&lt;br&gt;Method" style="whiteSpace=wrap;html=1;aspect=fixed;fillColor=default;gradientColor=none;labelBackgroundColor=none;" vertex="1" parent="UEzPUAAOIrF-is8g5C7q-175">
          <mxGeometry x="285" y="300" width="70" height="70" as="geometry" />
        </mxCell>
        <mxCell id="7ESEeqmzhxx4Lz22iERS-10" value="" style="endArrow=classic;startArrow=classic;html=1;rounded=0;entryX=0.517;entryY=1.085;entryDx=0;entryDy=0;entryPerimeter=0;" edge="1" parent="UEzPUAAOIrF-is8g5C7q-175" target="7ESEeqmzhxx4Lz22iERS-2">
          <mxGeometry width="50" height="50" relative="1" as="geometry">
            <mxPoint x="429" y="180" as="sourcePoint" />
            <mxPoint x="431" y="100" as="targetPoint" />
          </mxGeometry>
        </mxCell>
        <mxCell id="7ESEeqmzhxx4Lz22iERS-18" value="" style="edgeStyle=orthogonalEdgeStyle;rounded=0;orthogonalLoop=1;jettySize=auto;html=1;" edge="1" parent="UEzPUAAOIrF-is8g5C7q-175" source="7ESEeqmzhxx4Lz22iERS-12" target="7ESEeqmzhxx4Lz22iERS-15">
          <mxGeometry relative="1" as="geometry" />
        </mxCell>
        <mxCell id="7ESEeqmzhxx4Lz22iERS-19" value="" style="edgeStyle=orthogonalEdgeStyle;rounded=0;orthogonalLoop=1;jettySize=auto;html=1;" edge="1" parent="UEzPUAAOIrF-is8g5C7q-175" source="7ESEeqmzhxx4Lz22iERS-12" target="7ESEeqmzhxx4Lz22iERS-17">
          <mxGeometry relative="1" as="geometry" />
        </mxCell>
        <mxCell id="7ESEeqmzhxx4Lz22iERS-12" value="Resource" style="text;strokeColor=none;align=center;fillColor=none;html=1;verticalAlign=middle;whiteSpace=wrap;rounded=0;" vertex="1" parent="UEzPUAAOIrF-is8g5C7q-175">
          <mxGeometry x="401.25" y="270" width="60" height="30" as="geometry" />
        </mxCell>
        <mxCell id="7ESEeqmzhxx4Lz22iERS-15" value="/upload&lt;br&gt;" style="text;strokeColor=none;align=center;fillColor=none;html=1;verticalAlign=middle;whiteSpace=wrap;rounded=0;" vertex="1" parent="UEzPUAAOIrF-is8g5C7q-175">
          <mxGeometry x="295" y="300" width="60" height="30" as="geometry" />
        </mxCell>
        <mxCell id="7ESEeqmzhxx4Lz22iERS-16" value="&lt;br&gt;&lt;br&gt;GET&lt;br&gt;Method" style="whiteSpace=wrap;html=1;aspect=fixed;fillColor=default;gradientColor=none;labelBackgroundColor=none;" vertex="1" parent="UEzPUAAOIrF-is8g5C7q-175">
          <mxGeometry x="505" y="300" width="70" height="70" as="geometry" />
        </mxCell>
        <mxCell id="7ESEeqmzhxx4Lz22iERS-17" value="/retrieve" style="text;strokeColor=none;align=center;fillColor=none;html=1;verticalAlign=middle;whiteSpace=wrap;rounded=0;" vertex="1" parent="UEzPUAAOIrF-is8g5C7q-175">
          <mxGeometry x="505" y="300" width="60" height="30" as="geometry" />
        </mxCell>
        <mxCell id="7ESEeqmzhxx4Lz22iERS-20" value="" style="outlineConnect=0;dashed=0;verticalLabelPosition=bottom;verticalAlign=top;align=center;html=1;shape=mxgraph.aws3.lambda_function;fillColor=#F58534;gradientColor=none;" vertex="1" parent="UEzPUAAOIrF-is8g5C7q-175">
          <mxGeometry x="287.5" y="455" width="75" height="80" as="geometry" />
        </mxCell>
        <mxCell id="7ESEeqmzhxx4Lz22iERS-21" value="" style="outlineConnect=0;dashed=0;verticalLabelPosition=bottom;verticalAlign=top;align=center;html=1;shape=mxgraph.aws3.lambda_function;fillColor=#F58534;gradientColor=none;" vertex="1" parent="UEzPUAAOIrF-is8g5C7q-175">
          <mxGeometry x="510" y="455" width="75" height="80" as="geometry" />
        </mxCell>
        <mxCell id="7ESEeqmzhxx4Lz22iERS-22" value="" style="rounded=1;whiteSpace=wrap;html=1;labelBackgroundColor=none;fillColor=none;" vertex="1" parent="UEzPUAAOIrF-is8g5C7q-175">
          <mxGeometry x="247.5" y="440" width="152.5" height="130" as="geometry" />
        </mxCell>
        <mxCell id="7ESEeqmzhxx4Lz22iERS-23" value="" style="rounded=1;whiteSpace=wrap;html=1;labelBackgroundColor=none;fillColor=none;" vertex="1" parent="UEzPUAAOIrF-is8g5C7q-175">
          <mxGeometry x="470" y="440" width="150" height="130" as="geometry" />
        </mxCell>
        <mxCell id="7ESEeqmzhxx4Lz22iERS-25" value="" style="endArrow=classic;html=1;rounded=0;exitX=0.5;exitY=1;exitDx=0;exitDy=0;" edge="1" parent="UEzPUAAOIrF-is8g5C7q-175" source="7ESEeqmzhxx4Lz22iERS-5">
          <mxGeometry width="50" height="50" relative="1" as="geometry">
            <mxPoint x="490" y="420" as="sourcePoint" />
            <mxPoint x="320" y="440" as="targetPoint" />
          </mxGeometry>
        </mxCell>
        <mxCell id="7ESEeqmzhxx4Lz22iERS-35" value="" style="edgeStyle=orthogonalEdgeStyle;rounded=0;orthogonalLoop=1;jettySize=auto;html=1;" edge="1" parent="UEzPUAAOIrF-is8g5C7q-175" source="7ESEeqmzhxx4Lz22iERS-26" target="7ESEeqmzhxx4Lz22iERS-30">
          <mxGeometry relative="1" as="geometry">
            <Array as="points">
              <mxPoint x="330" y="570" />
              <mxPoint x="330" y="570" />
            </Array>
          </mxGeometry>
        </mxCell>
        <mxCell id="7ESEeqmzhxx4Lz22iERS-26" value="UploadCSVLambda" style="text;strokeColor=none;align=center;fillColor=none;html=1;verticalAlign=middle;whiteSpace=wrap;rounded=0;" vertex="1" parent="UEzPUAAOIrF-is8g5C7q-175">
          <mxGeometry x="295" y="540" width="60" height="30" as="geometry" />
        </mxCell>
        <mxCell id="7ESEeqmzhxx4Lz22iERS-27" value="RetrieveDataLambda" style="text;html=1;align=center;verticalAlign=middle;resizable=0;points=[];autosize=1;strokeColor=none;fillColor=none;" vertex="1" parent="UEzPUAAOIrF-is8g5C7q-175">
          <mxGeometry x="475" y="540" width="140" height="30" as="geometry" />
        </mxCell>
        <mxCell id="7ESEeqmzhxx4Lz22iERS-30" value="" style="outlineConnect=0;dashed=0;verticalLabelPosition=bottom;verticalAlign=top;align=center;html=1;shape=mxgraph.aws3.s3;fillColor=#E05243;gradientColor=none;" vertex="1" parent="UEzPUAAOIrF-is8g5C7q-175">
          <mxGeometry x="287.5" y="640" width="92.5" height="110" as="geometry" />
        </mxCell>
        <mxCell id="7ESEeqmzhxx4Lz22iERS-38" value="" style="edgeStyle=orthogonalEdgeStyle;rounded=0;orthogonalLoop=1;jettySize=auto;html=1;" edge="1" parent="UEzPUAAOIrF-is8g5C7q-175" source="7ESEeqmzhxx4Lz22iERS-31" target="7ESEeqmzhxx4Lz22iERS-27">
          <mxGeometry relative="1" as="geometry">
            <Array as="points">
              <mxPoint x="548" y="580" />
              <mxPoint x="548" y="580" />
            </Array>
          </mxGeometry>
        </mxCell>
        <mxCell id="7ESEeqmzhxx4Lz22iERS-31" value="" style="sketch=0;points=[[0,0,0],[0.25,0,0],[0.5,0,0],[0.75,0,0],[1,0,0],[0,1,0],[0.25,1,0],[0.5,1,0],[0.75,1,0],[1,1,0],[0,0.25,0],[0,0.5,0],[0,0.75,0],[1,0.25,0],[1,0.5,0],[1,0.75,0]];outlineConnect=0;fontColor=#232F3E;fillColor=#C925D1;strokeColor=#ffffff;dashed=0;verticalLabelPosition=bottom;verticalAlign=top;align=center;html=1;fontSize=12;fontStyle=0;aspect=fixed;shape=mxgraph.aws4.resourceIcon;resIcon=mxgraph.aws4.dynamodb;" vertex="1" parent="UEzPUAAOIrF-is8g5C7q-175">
          <mxGeometry x="497.5" y="640" width="100" height="100" as="geometry" />
        </mxCell>
        <mxCell id="7ESEeqmzhxx4Lz22iERS-37" value="" style="endArrow=classic;html=1;rounded=0;exitX=0.75;exitY=1;exitDx=0;exitDy=0;entryX=0;entryY=0;entryDx=0;entryDy=0;entryPerimeter=0;" edge="1" parent="UEzPUAAOIrF-is8g5C7q-175" source="7ESEeqmzhxx4Lz22iERS-26" target="7ESEeqmzhxx4Lz22iERS-31">
          <mxGeometry width="50" height="50" relative="1" as="geometry">
            <mxPoint x="440" y="600" as="sourcePoint" />
            <mxPoint x="490" y="550" as="targetPoint" />
          </mxGeometry>
        </mxCell>
        <mxCell id="7ESEeqmzhxx4Lz22iERS-41" value="" style="edgeStyle=orthogonalEdgeStyle;rounded=0;orthogonalLoop=1;jettySize=auto;html=1;" edge="1" parent="UEzPUAAOIrF-is8g5C7q-175">
          <mxGeometry relative="1" as="geometry">
            <mxPoint x="544.41" y="440" as="sourcePoint" />
            <mxPoint x="544.41" y="370" as="targetPoint" />
            <Array as="points">
              <mxPoint x="544.41" y="380" />
              <mxPoint x="544.41" y="380" />
            </Array>
          </mxGeometry>
        </mxCell>
        <mxCell id="7ESEeqmzhxx4Lz22iERS-42" value="" style="outlineConnect=0;dashed=0;verticalLabelPosition=bottom;verticalAlign=top;align=center;html=1;shape=mxgraph.aws3.iam;fillColor=#759C3E;gradientColor=none;" vertex="1" parent="UEzPUAAOIrF-is8g5C7q-175">
          <mxGeometry x="100" y="450" width="60" height="120" as="geometry" />
        </mxCell>
        <mxCell id="7ESEeqmzhxx4Lz22iERS-44" value="" style="outlineConnect=0;dashed=0;verticalLabelPosition=bottom;verticalAlign=top;align=center;html=1;shape=mxgraph.aws3.iam;fillColor=#759C3E;gradientColor=none;" vertex="1" parent="UEzPUAAOIrF-is8g5C7q-175">
          <mxGeometry x="710" y="440" width="60" height="120" as="geometry" />
        </mxCell>
        <mxCell id="7ESEeqmzhxx4Lz22iERS-47" value="" style="endArrow=none;dashed=1;html=1;rounded=0;entryX=0.002;entryY=0.6;entryDx=0;entryDy=0;entryPerimeter=0;" edge="1" parent="UEzPUAAOIrF-is8g5C7q-175" target="7ESEeqmzhxx4Lz22iERS-22">
          <mxGeometry width="50" height="50" relative="1" as="geometry">
            <mxPoint x="160" y="518" as="sourcePoint" />
            <mxPoint x="210" y="470" as="targetPoint" />
          </mxGeometry>
        </mxCell>
        <mxCell id="7ESEeqmzhxx4Lz22iERS-49" value="" style="ellipse;whiteSpace=wrap;html=1;fillColor=none;" vertex="1" parent="UEzPUAAOIrF-is8g5C7q-175">
          <mxGeometry x="20" y="402.5" width="220" height="240" as="geometry" />
        </mxCell>
        <mxCell id="7ESEeqmzhxx4Lz22iERS-50" value="AmazonLamdaBasicExecutionRole" style="text;html=1;align=center;verticalAlign=middle;resizable=0;points=[];autosize=1;strokeColor=none;fillColor=none;" vertex="1" parent="UEzPUAAOIrF-is8g5C7q-175">
          <mxGeometry x="25" y="560" width="210" height="30" as="geometry" />
        </mxCell>
        <mxCell id="7ESEeqmzhxx4Lz22iERS-52" value="DynamoDBFullAccess" style="text;html=1;align=center;verticalAlign=middle;resizable=0;points=[];autosize=1;strokeColor=none;fillColor=none;" vertex="1" parent="UEzPUAAOIrF-is8g5C7q-175">
          <mxGeometry x="60" y="580" width="140" height="30" as="geometry" />
        </mxCell>
        <mxCell id="7ESEeqmzhxx4Lz22iERS-53" value="AmazonS3FullAccess" style="text;html=1;align=center;verticalAlign=middle;resizable=0;points=[];autosize=1;strokeColor=none;fillColor=none;" vertex="1" parent="UEzPUAAOIrF-is8g5C7q-175">
          <mxGeometry x="60" y="600" width="140" height="30" as="geometry" />
        </mxCell>
        <mxCell id="7ESEeqmzhxx4Lz22iERS-54" value="" style="ellipse;whiteSpace=wrap;html=1;fillColor=none;" vertex="1" parent="UEzPUAAOIrF-is8g5C7q-175">
          <mxGeometry x="640" y="400" width="220" height="242.5" as="geometry" />
        </mxCell>
        <mxCell id="7ESEeqmzhxx4Lz22iERS-55" value="AmazonLambdaBasicExecutionRole" style="text;html=1;align=center;verticalAlign=middle;resizable=0;points=[];autosize=1;strokeColor=none;fillColor=none;" vertex="1" parent="UEzPUAAOIrF-is8g5C7q-175">
          <mxGeometry x="640" y="560" width="220" height="30" as="geometry" />
        </mxCell>
        <mxCell id="7ESEeqmzhxx4Lz22iERS-56" value="AmazonDynamoDBFullAccess" style="text;html=1;align=center;verticalAlign=middle;resizable=0;points=[];autosize=1;strokeColor=none;fillColor=none;" vertex="1" parent="UEzPUAAOIrF-is8g5C7q-175">
          <mxGeometry x="655" y="580" width="190" height="30" as="geometry" />
        </mxCell>
        <mxCell id="7ESEeqmzhxx4Lz22iERS-61" value="" style="endArrow=none;dashed=1;html=1;rounded=0;entryX=0.002;entryY=0.6;entryDx=0;entryDy=0;entryPerimeter=0;" edge="1" parent="UEzPUAAOIrF-is8g5C7q-175">
          <mxGeometry width="50" height="50" relative="1" as="geometry">
            <mxPoint x="620" y="509.17" as="sourcePoint" />
            <mxPoint x="708" y="509.17" as="targetPoint" />
          </mxGeometry>
        </mxCell>
        <mxCell id="7ESEeqmzhxx4Lz22iERS-62" value="" style="endArrow=none;dashed=1;html=1;dashPattern=1 3;strokeWidth=2;rounded=0;entryX=0.5;entryY=1;entryDx=0;entryDy=0;" edge="1" parent="UEzPUAAOIrF-is8g5C7q-175" target="7ESEeqmzhxx4Lz22iERS-54">
          <mxGeometry width="50" height="50" relative="1" as="geometry">
            <mxPoint x="597.5" y="710" as="sourcePoint" />
            <mxPoint x="647.5" y="660" as="targetPoint" />
            <Array as="points">
              <mxPoint x="750" y="710" />
            </Array>
          </mxGeometry>
        </mxCell>
        <mxCell id="7ESEeqmzhxx4Lz22iERS-63" value="" style="endArrow=none;dashed=1;html=1;dashPattern=1 3;strokeWidth=2;rounded=0;entryX=0.5;entryY=1;entryDx=0;entryDy=0;exitX=0.027;exitY=0.7;exitDx=0;exitDy=0;exitPerimeter=0;" edge="1" parent="UEzPUAAOIrF-is8g5C7q-175" source="7ESEeqmzhxx4Lz22iERS-30" target="7ESEeqmzhxx4Lz22iERS-49">
          <mxGeometry width="50" height="50" relative="1" as="geometry">
            <mxPoint x="70" y="717" as="sourcePoint" />
            <mxPoint x="222.5" y="650" as="targetPoint" />
            <Array as="points">
              <mxPoint x="130" y="717" />
            </Array>
          </mxGeometry>
        </mxCell>
        <mxCell id="7ESEeqmzhxx4Lz22iERS-68" value="" style="endArrow=none;dashed=1;html=1;dashPattern=1 3;strokeWidth=2;rounded=0;entryX=0.5;entryY=1;entryDx=0;entryDy=0;" edge="1" parent="UEzPUAAOIrF-is8g5C7q-175">
          <mxGeometry width="50" height="50" relative="1" as="geometry">
            <mxPoint x="280" y="787" as="sourcePoint" />
            <mxPoint x="90" y="707" as="targetPoint" />
            <Array as="points">
              <mxPoint x="90" y="781" />
            </Array>
          </mxGeometry>
        </mxCell>
        <mxCell id="7ESEeqmzhxx4Lz22iERS-69" value="" style="endArrow=none;dashed=1;html=1;dashPattern=1 3;strokeWidth=2;rounded=0;entryX=0.308;entryY=0.964;entryDx=0;entryDy=0;entryPerimeter=0;" edge="1" parent="UEzPUAAOIrF-is8g5C7q-175" target="7ESEeqmzhxx4Lz22iERS-49">
          <mxGeometry width="50" height="50" relative="1" as="geometry">
            <mxPoint x="90" y="707" as="sourcePoint" />
            <mxPoint x="140" y="657" as="targetPoint" />
          </mxGeometry>
        </mxCell>
        <mxCell id="7ESEeqmzhxx4Lz22iERS-73" value="" style="endArrow=none;dashed=1;html=1;dashPattern=1 3;strokeWidth=2;rounded=0;entryX=0.25;entryY=1;entryDx=0;entryDy=0;entryPerimeter=0;" edge="1" parent="UEzPUAAOIrF-is8g5C7q-175">
          <mxGeometry width="50" height="50" relative="1" as="geometry">
            <mxPoint x="282" y="787" as="sourcePoint" />
            <mxPoint x="554.5" y="740" as="targetPoint" />
            <Array as="points">
              <mxPoint x="555" y="787" />
            </Array>
          </mxGeometry>
        </mxCell>
        <mxCell id="7ESEeqmzhxx4Lz22iERS-74" value="&lt;b&gt;&lt;font style=&quot;font-size: 13px;&quot;&gt;API Gateway&lt;/font&gt;&lt;/b&gt;" style="text;html=1;align=center;verticalAlign=middle;resizable=0;points=[];autosize=1;strokeColor=none;fillColor=none;" vertex="1" parent="UEzPUAAOIrF-is8g5C7q-175">
          <mxGeometry x="492.5" y="210" width="100" height="30" as="geometry" />
        </mxCell>
        <mxCell id="7ESEeqmzhxx4Lz22iERS-75" value="S3 Bucket" style="text;html=1;align=center;verticalAlign=middle;resizable=0;points=[];autosize=1;strokeColor=none;fillColor=none;" vertex="1" parent="UEzPUAAOIrF-is8g5C7q-175">
          <mxGeometry x="287.5" y="750" width="80" height="30" as="geometry" />
        </mxCell>
        <mxCell id="7ESEeqmzhxx4Lz22iERS-76" value="DynamoDB" style="text;html=1;align=center;verticalAlign=middle;resizable=0;points=[];autosize=1;strokeColor=none;fillColor=none;" vertex="1" parent="UEzPUAAOIrF-is8g5C7q-175">
          <mxGeometry x="482.25" y="740" width="80" height="30" as="geometry" />
        </mxCell>
        <mxCell id="7ESEeqmzhxx4Lz22iERS-77" value="&lt;b&gt;&lt;font face=&quot;Verdana&quot;&gt;Analytics Service Diagram&amp;nbsp;&lt;/font&gt;&lt;/b&gt;" style="text;html=1;align=center;verticalAlign=middle;resizable=0;points=[];autosize=1;strokeColor=none;fillColor=none;" vertex="1" parent="UEzPUAAOIrF-is8g5C7q-175">
          <mxGeometry x="744" y="24" width="198" height="27" as="geometry" />
        </mxCell>
        <mxCell id="7ESEeqmzhxx4Lz22iERS-78" value="" style="dashed=0;outlineConnect=0;html=1;align=center;labelPosition=center;verticalLabelPosition=bottom;verticalAlign=top;shape=mxgraph.weblogos.json_2" vertex="1" parent="UEzPUAAOIrF-is8g5C7q-175">
          <mxGeometry x="514" y="115" width="80.4" height="25.200000000000003" as="geometry" />
        </mxCell>
      </root>
    </mxGraphModel>
  </diagram>
</mxfile>
